<svg xmlns="http://www.w3.org/2000/svg" width="512" height="512" viewBox="0 0 200 200" role="img" aria-label="Block Blast icon">
  <defs>
    <linearGradient id="strokeGrad" x1="0" y1="0" x2="0" y2="1">
      <stop offset="0%" stop-color="#2EE6FF" stop-opacity="0.9"/>
      <stop offset="100%" stop-color="#3BA8FF" stop-opacity="0.55"/>
    </linearGradient>
    <filter id="softGlow" x="-30%" y="-30%" width="160%" height="160%">
      <feGaussianBlur in="SourceGraphic" stdDeviation="1.5" result="blur"/>
      <feColorMatrix in="blur" type="matrix"
        values="1 0 0 0 0  0 1 0 0 0  0 0 1 0 0  0 0 0 0.4 0" result="blurAlpha"/>
      <feMerge>
        <feMergeNode in="blurAlpha"/>
        <feMergeNode in="SourceGraphic"/>
      </feMerge>
    </filter>
    <linearGradient id="blockFill" x1="0" y1="0" x2="0" y2="1">
      <stop offset="0%" stop-color="#1D3A5F"/>
      <stop offset="100%" stop-color="#10253E"/>
    </linearGradient>
    <linearGradient id="blockCyan" x1="0" y1="0" x2="1" y2="1">
      <stop offset="0%" stop-color="#2EE6FF"/>
      <stop offset="100%" stop-color="#3BA8FF"/>
    </linearGradient>
    <linearGradient id="blockGold" x1="0" y1="0" x2="1" y2="1">
      <stop offset="0%" stop-color="#FFC83D"/>
      <stop offset="100%" stop-color="#FFB02E"/>
    </linearGradient>
    <linearGradient id="blockMagenta" x1="0" y1="0" x2="1" y2="1">
      <stop offset="0%" stop-color="#E056FD"/>
      <stop offset="100%" stop-color="#B84BFF"/>
    </linearGradient>
  </defs>
  <rect x="0" y="0" width="200" height="200" rx="34" fill="url(#blockFill)" stroke="url(#strokeGrad)" stroke-width="3" opacity="0.98"/>
  <rect x="14" y="14" width="172" height="172" rx="26" fill="none" stroke="#FFFFFF" stroke-opacity="0.10" stroke-width="2"/>
  <g opacity="0.10" stroke="#FFFFFF" stroke-width="1">
    <path d="M46 18 V182"/><path d="M78 18 V182"/><path d="M110 18 V182"/><path d="M142 18 V182"/><path d="M174 18 V182"/>
    <path d="M18 46 H182"/><path d="M18 78 H182"/><path d="M18 110 H182"/><path d="M18 142 H182"/><path d="M18 174 H182"/>
  </g>
  <g filter="url(#softGlow)">
    <rect x="54" y="60" width="28" height="28" rx="7" fill="url(#blockCyan)"/>
    <rect x="86" y="60" width="28" height="28" rx="7" fill="url(#blockCyan)"/>
    <rect x="54" y="92" width="28" height="28" rx="7" fill="url(#blockCyan)"/>
    <rect x="118" y="92" width="28" height="28" rx="7" fill="url(#blockGold)"/>
    <rect x="150" y="92" width="28" height="28" rx="7" fill="url(#blockGold)"/>
    <rect x="118" y="124" width="28" height="28" rx="7" fill="url(#blockMagenta)"/>
  </g>
  <circle cx="164" cy="44" r="3" fill="#2EE6FF" opacity="0.55"/>
  <circle cx="38" cy="156" r="2.5" fill="#3BA8FF" opacity="0.35"/>
</svg>
