<svg xmlns="http://www.w3.org/2000/svg" width="96" height="96" viewBox="0 0 96 96" role="img" aria-label="Settings icon">
  <defs>
    <linearGradient id="stGlass" x1="0" y1="0" x2="0" y2="1">
      <stop offset="0%" stop-color="#1C3B63"/>
      <stop offset="100%" stop-color="#132C4A"/>
    </linearGradient>
    <linearGradient id="stStroke" x1="0" y1="0" x2="1" y2="1">
      <stop offset="0%" stop-color="#2EE6FF" stop-opacity="0.85"/>
      <stop offset="100%" stop-color="#3BA8FF" stop-opacity="0.45"/>
    </linearGradient>
    <linearGradient id="stCyan" x1="0" y1="0" x2="1" y2="1">
      <stop offset="0%" stop-color="#2EE6FF"/>
      <stop offset="100%" stop-color="#3BA8FF"/>
    </linearGradient>
    <filter id="stGlow" x="-40%" y="-40%" width="180%" height="180%">
      <feGaussianBlur stdDeviation="3.5" result="b"/>
      <feMerge>
        <feMergeNode in="b"/>
        <feMergeNode in="SourceGraphic"/>
      </feMerge>
    </filter>
  </defs>
  <rect x="12" y="12" width="72" height="72" rx="18" fill="#2EE6FF" opacity="0.10" filter="url(#stGlow)"/>
  <rect x="12" y="12" width="72" height="72" rx="18" fill="url(#stGlass)" stroke="url(#stStroke)" stroke-width="2"/>
  <rect x="15.5" y="15.5" width="65" height="65" rx="15" fill="none" stroke="#FFFFFF" stroke-opacity="0.08" stroke-width="1.5"/>

  <!-- Gear: inner circle, outer ring, 8 spokes -->
  <g fill="none" stroke="url(#stCyan)" stroke-width="2.2" stroke-linecap="round" stroke-linejoin="round">
    <circle cx="48" cy="48" r="10"/>
    <circle cx="48" cy="48" r="20"/>
    <path d="M48 28v10M48 58v10M28 48h10M58 48h10M34 34l7 7M62 34l-7 7M62 62l-7-7M34 62l7-7"/>
  </g>

  <circle cx="70" cy="26" r="2.2" fill="#2EE6FF" opacity="0.65"/>
</svg>
